<mxfile host="Electron" agent="Mozilla/5.0 (Windows NT 10.0; Win64; x64) AppleWebKit/537.36 (KHTML, like Gecko) draw.io/26.2.15 Chrome/134.0.6998.205 Electron/35.2.1 Safari/537.36" version="26.2.15" pages="4">
  <diagram name="L1: Context" id="wFDInRo5mmA9KZ5ql3qR">
    <mxGraphModel dx="2460" dy="939" grid="1" gridSize="5" guides="1" tooltips="1" connect="1" arrows="1" fold="1" page="1" pageScale="1" pageWidth="1920" pageHeight="1200" background="none" math="0" shadow="0" adaptiveColors="none">
      <root>
        <mxCell id="hWaDKPAPjDakbF2qywD9-0" />
        <mxCell id="hWaDKPAPjDakbF2qywD9-1" parent="hWaDKPAPjDakbF2qywD9-0" />
        <mxCell id="sN7JdFGzCeJXKkIDcfrp-36" value="" style="shape=image;verticalLabelPosition=bottom;labelBackgroundColor=default;verticalAlign=top;aspect=fixed;imageAspect=0;editableCssRules=.*;image=data:image/svg+xml,PHN2ZyB4bWxucz0iaHR0cDovL3d3dy53My5vcmcvMjAwMC9zdmciIGZpbGw9Im5vbmUiIHZpZXdCb3g9IjQgMiAxNiAyMCIgaGVpZ2h0PSI2NjYuNjY2NjY2NjY2NjY2NyIgd2lkdGg9IjUzMy4zMzMzMzMzMzMzMzM0Ij4mI3hhOzxwYXRoIHN0cm9rZS1saW5lam9pbj0icm91bmQiIHN0cm9rZS1saW5lY2FwPSJyb3VuZCIgc3Ryb2tlLXdpZHRoPSIyIiBzdHJva2U9IiMwMDAwMDAiIGQ9Ik01IDIxQzUgMTcuMTM0IDguMTM0MDEgMTQgMTIgMTRDMTUuODY2IDE0IDE5IDE3LjEzNCAxOSAyMU0xNiA3QzE2IDkuMjA5MTQgMTQuMjA5MSAxMSAxMiAxMUM5Ljc5MDg2IDExIDggOS4yMDkxNCA4IDdDOCA0Ljc5MDg2IDkuNzkwODYgMyAxMiAzQzE0LjIwOTEgMyAxNiA0Ljc5MDg2IDE2IDdaIi8+JiN4YTs8L3N2Zz4=;container=0;fontSize=20;fontFamily=Arial;strokeWidth=1;movable=1;resizable=1;rotatable=1;deletable=1;editable=1;locked=0;connectable=1;" parent="hWaDKPAPjDakbF2qywD9-1" vertex="1">
          <mxGeometry x="955" y="295" width="29.93" height="37.46" as="geometry" />
        </mxCell>
        <mxCell id="NS-MzKVbjmnh2r0ukI7Y-4" value="connects to" style="edgeStyle=orthogonalEdgeStyle;shape=connector;curved=0;rounded=1;jumpStyle=line;jumpSize=6;orthogonalLoop=1;jettySize=auto;html=1;exitX=0.5;exitY=1;exitDx=0;exitDy=0;shadow=0;strokeWidth=1;align=center;verticalAlign=middle;fontFamily=Arial;fontSize=12;fontColor=default;labelBackgroundColor=default;startSize=6;endArrow=block;endFill=1;endSize=6;flowAnimation=0;movable=1;resizable=1;rotatable=1;deletable=1;editable=1;locked=0;connectable=1;dashed=1;" parent="hWaDKPAPjDakbF2qywD9-1" source="NS-MzKVbjmnh2r0ukI7Y-0" target="NS-MzKVbjmnh2r0ukI7Y-3" edge="1">
          <mxGeometry relative="1" as="geometry" />
        </mxCell>
        <mxCell id="NS-MzKVbjmnh2r0ukI7Y-11" value="deploys on Azure" style="edgeStyle=orthogonalEdgeStyle;shape=connector;curved=0;rounded=1;jumpStyle=line;jumpSize=6;orthogonalLoop=1;jettySize=auto;html=1;shadow=0;strokeWidth=1;align=center;verticalAlign=middle;fontFamily=Arial;fontSize=12;fontColor=default;labelBackgroundColor=default;startSize=6;endArrow=block;endFill=1;endSize=6;flowAnimation=0;movable=1;resizable=1;rotatable=1;deletable=1;editable=1;locked=0;connectable=1;dashed=1;" parent="hWaDKPAPjDakbF2qywD9-1" source="NS-MzKVbjmnh2r0ukI7Y-0" target="NS-MzKVbjmnh2r0ukI7Y-6" edge="1">
          <mxGeometry relative="1" as="geometry">
            <Array as="points">
              <mxPoint x="970" y="585" />
              <mxPoint x="1310" y="585" />
            </Array>
          </mxGeometry>
        </mxCell>
        <mxCell id="mBGy9JrME3gjjEuQZPyS-3" value="connects to" style="edgeStyle=orthogonalEdgeStyle;shape=connector;curved=0;rounded=1;jumpStyle=line;jumpSize=6;orthogonalLoop=1;jettySize=auto;html=1;exitX=1;exitY=0.25;exitDx=0;exitDy=0;shadow=0;dashed=1;strokeColor=default;strokeWidth=1;align=center;verticalAlign=middle;fontFamily=Arial;fontSize=12;fontColor=default;labelBackgroundColor=default;resizable=1;startSize=6;endArrow=block;endFill=1;endSize=6;flowAnimation=0;" parent="hWaDKPAPjDakbF2qywD9-1" source="NS-MzKVbjmnh2r0ukI7Y-0" target="NS-MzKVbjmnh2r0ukI7Y-5" edge="1">
          <mxGeometry relative="1" as="geometry" />
        </mxCell>
        <mxCell id="NS-MzKVbjmnh2r0ukI7Y-0" value="ExCITE Platform&lt;div&gt;(frontend)&lt;/div&gt;" style="rounded=0;whiteSpace=wrap;html=1;fontFamily=Arial;fontSize=24;labelBackgroundColor=none;strokeWidth=1;verticalAlign=middle;movable=1;resizable=1;rotatable=1;deletable=1;editable=1;locked=0;connectable=1;" parent="hWaDKPAPjDakbF2qywD9-1" vertex="1">
          <mxGeometry x="770" y="420" width="400" height="100" as="geometry" />
        </mxCell>
        <mxCell id="uGTVU0BTGu46l6dhIRjA-0" value="interfaces with" style="edgeStyle=orthogonalEdgeStyle;shape=connector;curved=0;rounded=1;jumpStyle=line;jumpSize=6;orthogonalLoop=1;jettySize=auto;html=1;exitX=0.5;exitY=1;exitDx=0;exitDy=0;shadow=0;dashed=1;strokeColor=default;strokeWidth=1;align=center;verticalAlign=middle;fontFamily=Arial;fontSize=12;fontColor=default;labelBackgroundColor=default;resizable=1;startSize=6;endArrow=block;endFill=1;endSize=6;flowAnimation=0;" parent="hWaDKPAPjDakbF2qywD9-1" source="NS-MzKVbjmnh2r0ukI7Y-2" target="NS-MzKVbjmnh2r0ukI7Y-0" edge="1">
          <mxGeometry relative="1" as="geometry" />
        </mxCell>
        <mxCell id="NS-MzKVbjmnh2r0ukI7Y-2" value="User" style="rounded=0;whiteSpace=wrap;html=1;fontFamily=Arial;fontSize=24;labelBackgroundColor=none;strokeWidth=1;verticalAlign=middle;movable=1;resizable=1;rotatable=1;deletable=1;editable=1;locked=0;connectable=1;" parent="hWaDKPAPjDakbF2qywD9-1" vertex="1">
          <mxGeometry x="890" y="285" width="160" height="80" as="geometry" />
        </mxCell>
        <mxCell id="NS-MzKVbjmnh2r0ukI7Y-13" style="edgeStyle=orthogonalEdgeStyle;shape=connector;curved=0;rounded=1;jumpStyle=line;jumpSize=6;orthogonalLoop=1;jettySize=auto;html=1;exitX=1;exitY=0.5;exitDx=0;exitDy=0;shadow=0;strokeWidth=1;align=center;verticalAlign=middle;fontFamily=Arial;fontSize=12;fontColor=default;labelBackgroundColor=default;startSize=6;endArrow=block;endFill=1;endSize=6;flowAnimation=0;dashed=1;startArrow=block;startFill=1;movable=1;resizable=1;rotatable=1;deletable=1;editable=1;locked=0;connectable=1;" parent="hWaDKPAPjDakbF2qywD9-1" source="NS-MzKVbjmnh2r0ukI7Y-3" target="NS-MzKVbjmnh2r0ukI7Y-6" edge="1">
          <mxGeometry relative="1" as="geometry" />
        </mxCell>
        <mxCell id="mBGy9JrME3gjjEuQZPyS-4" value="orchestrates" style="edgeStyle=orthogonalEdgeStyle;shape=connector;curved=0;rounded=1;jumpStyle=line;jumpSize=6;orthogonalLoop=1;jettySize=auto;html=1;exitX=0;exitY=0.5;exitDx=0;exitDy=0;shadow=0;dashed=1;strokeColor=default;strokeWidth=1;align=center;verticalAlign=middle;fontFamily=Arial;fontSize=12;fontColor=default;labelBackgroundColor=default;resizable=1;startSize=6;endArrow=block;endFill=1;endSize=6;flowAnimation=0;" parent="hWaDKPAPjDakbF2qywD9-1" source="NS-MzKVbjmnh2r0ukI7Y-3" target="NS-MzKVbjmnh2r0ukI7Y-19" edge="1">
          <mxGeometry relative="1" as="geometry" />
        </mxCell>
        <mxCell id="NS-MzKVbjmnh2r0ukI7Y-3" value="ExCITE&lt;div&gt;(backend)&lt;/div&gt;" style="rounded=0;whiteSpace=wrap;html=1;fontFamily=Arial;fontSize=24;labelBackgroundColor=none;strokeWidth=1;movable=1;resizable=1;rotatable=1;deletable=1;editable=1;locked=0;connectable=1;" parent="hWaDKPAPjDakbF2qywD9-1" vertex="1">
          <mxGeometry x="890" y="630" width="160" height="70" as="geometry" />
        </mxCell>
        <mxCell id="NS-MzKVbjmnh2r0ukI7Y-5" value="OpenEMR" style="rounded=0;whiteSpace=wrap;html=1;fontFamily=Arial;fontSize=24;labelBackgroundColor=none;strokeWidth=1;movable=1;resizable=1;rotatable=1;deletable=1;editable=1;locked=0;connectable=1;" parent="hWaDKPAPjDakbF2qywD9-1" vertex="1">
          <mxGeometry x="1270" y="415" width="180" height="60" as="geometry" />
        </mxCell>
        <mxCell id="mBGy9JrME3gjjEuQZPyS-2" value="exposes" style="edgeStyle=orthogonalEdgeStyle;shape=connector;curved=0;rounded=1;jumpStyle=line;jumpSize=6;orthogonalLoop=1;jettySize=auto;html=1;exitX=0.75;exitY=0;exitDx=0;exitDy=0;shadow=0;dashed=1;strokeColor=default;strokeWidth=1;align=center;verticalAlign=middle;fontFamily=Arial;fontSize=12;fontColor=default;labelBackgroundColor=default;resizable=1;startSize=6;endArrow=block;endFill=1;endSize=6;flowAnimation=0;" parent="hWaDKPAPjDakbF2qywD9-1" source="NS-MzKVbjmnh2r0ukI7Y-6" target="NS-MzKVbjmnh2r0ukI7Y-5" edge="1">
          <mxGeometry relative="1" as="geometry" />
        </mxCell>
        <mxCell id="mBGy9JrME3gjjEuQZPyS-5" value="provides" style="edgeStyle=orthogonalEdgeStyle;shape=connector;curved=0;rounded=1;jumpStyle=line;jumpSize=6;orthogonalLoop=1;jettySize=auto;html=1;entryX=1;entryY=0.5;entryDx=0;entryDy=0;shadow=0;dashed=1;strokeColor=default;strokeWidth=1;align=center;verticalAlign=middle;fontFamily=Arial;fontSize=12;fontColor=default;labelBackgroundColor=default;resizable=1;startSize=6;endArrow=block;endFill=1;endSize=6;flowAnimation=0;" parent="hWaDKPAPjDakbF2qywD9-1" source="NS-MzKVbjmnh2r0ukI7Y-6" target="mBGy9JrME3gjjEuQZPyS-0" edge="1">
          <mxGeometry relative="1" as="geometry">
            <Array as="points">
              <mxPoint x="1310" y="770" />
            </Array>
          </mxGeometry>
        </mxCell>
        <mxCell id="mBGy9JrME3gjjEuQZPyS-11" value="provides" style="edgeStyle=orthogonalEdgeStyle;shape=connector;curved=0;rounded=1;jumpStyle=line;jumpSize=6;orthogonalLoop=1;jettySize=auto;html=1;exitX=0.5;exitY=1;exitDx=0;exitDy=0;entryX=0.5;entryY=1;entryDx=0;entryDy=0;shadow=0;dashed=1;strokeColor=default;strokeWidth=1;align=center;verticalAlign=middle;fontFamily=Arial;fontSize=12;fontColor=default;labelBackgroundColor=default;resizable=1;startSize=6;endArrow=block;endFill=1;endSize=6;flowAnimation=0;" parent="hWaDKPAPjDakbF2qywD9-1" source="NS-MzKVbjmnh2r0ukI7Y-6" target="mBGy9JrME3gjjEuQZPyS-7" edge="1">
          <mxGeometry relative="1" as="geometry" />
        </mxCell>
        <mxCell id="NS-MzKVbjmnh2r0ukI7Y-6" value="Azure&lt;br&gt;(IaaS / PaaS)" style="rounded=0;whiteSpace=wrap;html=1;fontFamily=Arial;fontSize=24;labelBackgroundColor=none;strokeWidth=1;movable=1;resizable=1;rotatable=1;deletable=1;editable=1;locked=0;connectable=1;" parent="hWaDKPAPjDakbF2qywD9-1" vertex="1">
          <mxGeometry x="1210" y="635" width="200" height="60" as="geometry" />
        </mxCell>
        <mxCell id="mBGy9JrME3gjjEuQZPyS-8" value="retrieves" style="edgeStyle=orthogonalEdgeStyle;shape=connector;curved=0;rounded=1;jumpStyle=line;jumpSize=6;orthogonalLoop=1;jettySize=auto;html=1;exitX=0.25;exitY=1;exitDx=0;exitDy=0;entryX=0.25;entryY=0;entryDx=0;entryDy=0;shadow=0;dashed=1;strokeColor=default;strokeWidth=1;align=center;verticalAlign=middle;fontFamily=Arial;fontSize=12;fontColor=default;labelBackgroundColor=default;resizable=1;startSize=6;endArrow=block;endFill=1;endSize=6;flowAnimation=0;" parent="hWaDKPAPjDakbF2qywD9-1" source="NS-MzKVbjmnh2r0ukI7Y-19" target="mBGy9JrME3gjjEuQZPyS-7" edge="1">
          <mxGeometry relative="1" as="geometry" />
        </mxCell>
        <mxCell id="NS-MzKVbjmnh2r0ukI7Y-19" value="JupyterLab" style="rounded=0;whiteSpace=wrap;html=1;fontFamily=Arial;fontSize=24;labelBackgroundColor=none;strokeWidth=1;movable=1;resizable=1;rotatable=1;deletable=1;editable=1;locked=0;connectable=1;" parent="hWaDKPAPjDakbF2qywD9-1" vertex="1">
          <mxGeometry x="545" y="420" width="180" height="60" as="geometry" />
        </mxCell>
        <mxCell id="mBGy9JrME3gjjEuQZPyS-9" style="edgeStyle=orthogonalEdgeStyle;shape=connector;curved=0;rounded=1;jumpStyle=line;jumpSize=6;orthogonalLoop=1;jettySize=auto;html=1;shadow=0;dashed=1;strokeColor=default;strokeWidth=1;align=center;verticalAlign=middle;fontFamily=Arial;fontSize=12;fontColor=default;labelBackgroundColor=default;resizable=1;startSize=6;endArrow=block;endFill=1;endSize=6;flowAnimation=0;startArrow=block;startFill=1;" parent="hWaDKPAPjDakbF2qywD9-1" source="mBGy9JrME3gjjEuQZPyS-0" target="NS-MzKVbjmnh2r0ukI7Y-3" edge="1">
          <mxGeometry relative="1" as="geometry" />
        </mxCell>
        <mxCell id="mBGy9JrME3gjjEuQZPyS-0" value="Images" style="rounded=0;whiteSpace=wrap;html=1;fontFamily=Arial;fontSize=24;labelBackgroundColor=none;strokeWidth=1;movable=1;resizable=1;rotatable=1;deletable=1;editable=1;locked=0;connectable=1;" parent="hWaDKPAPjDakbF2qywD9-1" vertex="1">
          <mxGeometry x="869.97" y="740" width="200" height="60" as="geometry" />
        </mxCell>
        <mxCell id="mBGy9JrME3gjjEuQZPyS-7" value="Package Repository" style="rounded=0;whiteSpace=wrap;html=1;fontFamily=Arial;fontSize=24;labelBackgroundColor=none;strokeWidth=1;movable=1;resizable=1;rotatable=1;deletable=1;editable=1;locked=0;connectable=1;" parent="hWaDKPAPjDakbF2qywD9-1" vertex="1">
          <mxGeometry x="540" y="740" width="200" height="60" as="geometry" />
        </mxCell>
      </root>
    </mxGraphModel>
  </diagram>
  <diagram name="L2: Container" id="8voJxOJWOTkznher7Ptk">
    <mxGraphModel dx="1722" dy="657" grid="1" gridSize="5" guides="1" tooltips="1" connect="1" arrows="1" fold="1" page="1" pageScale="1" pageWidth="1920" pageHeight="1200" background="none" math="0" shadow="0" adaptiveColors="none">
      <root>
        <mxCell id="v1fDPPINh6Xv338Q4RDt-0" />
        <mxCell id="v1fDPPINh6Xv338Q4RDt-1" parent="v1fDPPINh6Xv338Q4RDt-0" />
        <mxCell id="1GqAnjkuDoBz8iE_yqv2-0" value="" style="shape=image;verticalLabelPosition=bottom;labelBackgroundColor=default;verticalAlign=top;aspect=fixed;imageAspect=0;editableCssRules=.*;image=data:image/svg+xml,PHN2ZyB4bWxucz0iaHR0cDovL3d3dy53My5vcmcvMjAwMC9zdmciIGZpbGw9Im5vbmUiIHZpZXdCb3g9IjQgMiAxNiAyMCIgaGVpZ2h0PSI2NjYuNjY2NjY2NjY2NjY2NyIgd2lkdGg9IjUzMy4zMzMzMzMzMzMzMzM0Ij4mI3hhOzxwYXRoIHN0cm9rZS1saW5lam9pbj0icm91bmQiIHN0cm9rZS1saW5lY2FwPSJyb3VuZCIgc3Ryb2tlLXdpZHRoPSIyIiBzdHJva2U9IiMwMDAwMDAiIGQ9Ik01IDIxQzUgMTcuMTM0IDguMTM0MDEgMTQgMTIgMTRDMTUuODY2IDE0IDE5IDE3LjEzNCAxOSAyMU0xNiA3QzE2IDkuMjA5MTQgMTQuMjA5MSAxMSAxMiAxMUM5Ljc5MDg2IDExIDggOS4yMDkxNCA4IDdDOCA0Ljc5MDg2IDkuNzkwODYgMyAxMiAzQzE0LjIwOTEgMyAxNiA0Ljc5MDg2IDE2IDdaIi8+JiN4YTs8L3N2Zz4=;container=0;fontSize=20;fontFamily=Arial;strokeWidth=1;movable=1;resizable=1;rotatable=1;deletable=1;editable=1;locked=0;connectable=1;" parent="v1fDPPINh6Xv338Q4RDt-1" vertex="1">
          <mxGeometry x="825" y="175" width="29.93" height="37.46" as="geometry" />
        </mxCell>
        <mxCell id="p2MmfGQ7m_cJtWzehYHR-27" value="Interfaces with" style="edgeStyle=orthogonalEdgeStyle;shape=connector;curved=0;rounded=1;jumpStyle=line;jumpSize=6;orthogonalLoop=1;jettySize=auto;html=1;entryX=0.5;entryY=0;entryDx=0;entryDy=0;shadow=0;dashed=1;strokeColor=default;strokeWidth=1;align=center;verticalAlign=middle;fontFamily=Arial;fontSize=12;fontColor=default;labelBackgroundColor=default;resizable=1;startSize=6;endArrow=block;endFill=1;endSize=6;flowAnimation=0;" parent="v1fDPPINh6Xv338Q4RDt-1" source="1GqAnjkuDoBz8iE_yqv2-5" target="ZQqou7pGLEDfB2Juubly-1" edge="1">
          <mxGeometry relative="1" as="geometry" />
        </mxCell>
        <mxCell id="1GqAnjkuDoBz8iE_yqv2-5" value="User" style="rounded=0;whiteSpace=wrap;html=1;fontFamily=Arial;fontSize=24;labelBackgroundColor=none;strokeWidth=1;verticalAlign=middle;movable=1;resizable=1;rotatable=1;deletable=1;editable=1;locked=0;connectable=1;" parent="v1fDPPINh6Xv338Q4RDt-1" vertex="1">
          <mxGeometry x="815" y="140" width="160" height="80" as="geometry" />
        </mxCell>
        <mxCell id="ZQqou7pGLEDfB2Juubly-1" value="&lt;span style=&quot;font-size: 24px; font-weight: 400; background-color: rgb(236, 236, 236);&quot;&gt;ExCITE Platform&lt;/span&gt;" style="swimlane;whiteSpace=wrap;html=1;fontFamily=Arial;fontSize=12;fontColor=default;labelBackgroundColor=default;resizable=1;spacing=2;overflow=hidden;startSize=45;" parent="v1fDPPINh6Xv338Q4RDt-1" vertex="1">
          <mxGeometry x="530" y="295" width="730" height="765" as="geometry" />
        </mxCell>
        <mxCell id="p2MmfGQ7m_cJtWzehYHR-12" value="" style="group" parent="ZQqou7pGLEDfB2Juubly-1" vertex="1" connectable="0">
          <mxGeometry x="340" y="80" width="160" height="120" as="geometry" />
        </mxCell>
        <mxCell id="p2MmfGQ7m_cJtWzehYHR-13" value="Keycloak" style="rounded=1;whiteSpace=wrap;html=1;fontFamily=Arial;fontSize=12;fontColor=default;labelBackgroundColor=default;resizable=1;verticalAlign=top;spacing=0;" parent="p2MmfGQ7m_cJtWzehYHR-12" vertex="1">
          <mxGeometry width="160" height="45" as="geometry" />
        </mxCell>
        <mxCell id="p2MmfGQ7m_cJtWzehYHR-14" value="Container:&amp;nbsp;" style="rounded=0;whiteSpace=wrap;html=1;fontFamily=Arial;fontSize=12;fontColor=default;labelBackgroundColor=default;resizable=1;" parent="p2MmfGQ7m_cJtWzehYHR-12" vertex="1">
          <mxGeometry y="25" width="160" height="20" as="geometry" />
        </mxCell>
        <mxCell id="p2MmfGQ7m_cJtWzehYHR-15" value="- Identity &amp;amp; Access Management" style="rounded=0;whiteSpace=wrap;html=1;fontFamily=Arial;fontSize=12;fontColor=default;labelBackgroundColor=default;resizable=1;align=left;verticalAlign=top;" parent="p2MmfGQ7m_cJtWzehYHR-12" vertex="1">
          <mxGeometry y="45" width="160" height="75" as="geometry" />
        </mxCell>
        <mxCell id="p2MmfGQ7m_cJtWzehYHR-16" value="" style="group" parent="ZQqou7pGLEDfB2Juubly-1" vertex="1" connectable="0">
          <mxGeometry x="220" y="280" width="160" height="120" as="geometry" />
        </mxCell>
        <mxCell id="p2MmfGQ7m_cJtWzehYHR-17" value="Open OnDemand" style="rounded=1;whiteSpace=wrap;html=1;fontFamily=Arial;fontSize=12;fontColor=default;labelBackgroundColor=default;resizable=1;verticalAlign=top;spacing=0;" parent="p2MmfGQ7m_cJtWzehYHR-16" vertex="1">
          <mxGeometry width="160" height="45" as="geometry" />
        </mxCell>
        <mxCell id="p2MmfGQ7m_cJtWzehYHR-18" value="Container:&amp;nbsp;" style="rounded=0;whiteSpace=wrap;html=1;fontFamily=Arial;fontSize=12;fontColor=default;labelBackgroundColor=default;resizable=1;" parent="p2MmfGQ7m_cJtWzehYHR-16" vertex="1">
          <mxGeometry y="25" width="160" height="20" as="geometry" />
        </mxCell>
        <mxCell id="p2MmfGQ7m_cJtWzehYHR-19" value="- Deploys premade JupyterLab containers" style="rounded=0;whiteSpace=wrap;html=1;fontFamily=Arial;fontSize=12;fontColor=default;labelBackgroundColor=default;resizable=1;align=left;verticalAlign=top;" parent="p2MmfGQ7m_cJtWzehYHR-16" vertex="1">
          <mxGeometry y="45" width="160" height="75" as="geometry" />
        </mxCell>
        <mxCell id="p2MmfGQ7m_cJtWzehYHR-20" value="" style="group" parent="ZQqou7pGLEDfB2Juubly-1" vertex="1" connectable="0">
          <mxGeometry x="40" y="280" width="160" height="120" as="geometry" />
        </mxCell>
        <mxCell id="p2MmfGQ7m_cJtWzehYHR-21" value="OpenEMR" style="rounded=1;whiteSpace=wrap;html=1;fontFamily=Arial;fontSize=12;fontColor=default;labelBackgroundColor=default;resizable=1;verticalAlign=top;spacing=0;" parent="p2MmfGQ7m_cJtWzehYHR-20" vertex="1">
          <mxGeometry width="160" height="45" as="geometry" />
        </mxCell>
        <mxCell id="p2MmfGQ7m_cJtWzehYHR-22" value="Container:&amp;nbsp;" style="rounded=0;whiteSpace=wrap;html=1;fontFamily=Arial;fontSize=12;fontColor=default;labelBackgroundColor=default;resizable=1;" parent="p2MmfGQ7m_cJtWzehYHR-20" vertex="1">
          <mxGeometry y="25" width="160" height="20" as="geometry" />
        </mxCell>
        <mxCell id="p2MmfGQ7m_cJtWzehYHR-23" value="- Electronic Health Record Frontend" style="rounded=0;whiteSpace=wrap;html=1;fontFamily=Arial;fontSize=12;fontColor=default;labelBackgroundColor=default;resizable=1;align=left;verticalAlign=top;" parent="p2MmfGQ7m_cJtWzehYHR-20" vertex="1">
          <mxGeometry y="45" width="160" height="75" as="geometry" />
        </mxCell>
        <mxCell id="p2MmfGQ7m_cJtWzehYHR-29" style="edgeStyle=orthogonalEdgeStyle;shape=connector;curved=0;rounded=1;jumpStyle=line;jumpSize=6;orthogonalLoop=1;jettySize=auto;html=1;shadow=0;dashed=1;strokeColor=default;strokeWidth=1;align=center;verticalAlign=middle;fontFamily=Arial;fontSize=12;fontColor=default;labelBackgroundColor=default;resizable=1;startSize=6;endArrow=block;endFill=1;endSize=6;flowAnimation=0;" parent="ZQqou7pGLEDfB2Juubly-1" source="p2MmfGQ7m_cJtWzehYHR-15" target="p2MmfGQ7m_cJtWzehYHR-21" edge="1">
          <mxGeometry relative="1" as="geometry">
            <Array as="points">
              <mxPoint x="420" y="240" />
              <mxPoint x="120" y="240" />
            </Array>
          </mxGeometry>
        </mxCell>
        <mxCell id="p2MmfGQ7m_cJtWzehYHR-30" style="edgeStyle=orthogonalEdgeStyle;shape=connector;curved=0;rounded=1;jumpStyle=line;jumpSize=6;orthogonalLoop=1;jettySize=auto;html=1;shadow=0;dashed=1;strokeColor=default;strokeWidth=1;align=center;verticalAlign=middle;fontFamily=Arial;fontSize=12;fontColor=default;labelBackgroundColor=default;resizable=1;startSize=6;endArrow=block;endFill=1;endSize=6;flowAnimation=0;" parent="ZQqou7pGLEDfB2Juubly-1" source="p2MmfGQ7m_cJtWzehYHR-15" target="p2MmfGQ7m_cJtWzehYHR-17" edge="1">
          <mxGeometry relative="1" as="geometry" />
        </mxCell>
        <mxCell id="p2MmfGQ7m_cJtWzehYHR-40" value="" style="group" parent="ZQqou7pGLEDfB2Juubly-1" vertex="1" connectable="0">
          <mxGeometry x="220" y="645" width="160" height="80" as="geometry" />
        </mxCell>
        <mxCell id="1GqAnjkuDoBz8iE_yqv2-16" value="&lt;font style=&quot;font-size: 12px;&quot;&gt;OMOP CDM&lt;/font&gt;" style="shape=cylinder3;whiteSpace=wrap;html=1;boundedLbl=1;backgroundOutline=1;size=15;fontFamily=Arial;fontSize=10;fontColor=default;labelBackgroundColor=default;resizable=1;strokeWidth=1;" parent="p2MmfGQ7m_cJtWzehYHR-40" vertex="1">
          <mxGeometry width="160" height="80" as="geometry" />
        </mxCell>
        <mxCell id="1GqAnjkuDoBz8iE_yqv2-20" value="" style="shape=image;verticalLabelPosition=bottom;labelBackgroundColor=default;verticalAlign=top;aspect=fixed;imageAspect=0;editableCssRules=.*;image=data:image/svg+xml,PHN2ZyB4bWxucz0iaHR0cDovL3d3dy53My5vcmcvMjAwMC9zdmciIHZlcnNpb249IjEuMSIgdmlld0JveD0iMS40NDQ5OTczMTA2Mzg0Mjc3IDEuMDAzMDAwMjU5Mzk5NDE0IDI5LjAzMTQyNzM4MzQyMjg1IDI5Ljk5Mzk5NzU3Mzg1MjU0IiBoZWlnaHQ9Ijc0OS44NDk5MzkzNDYzMTM1IiB3aWR0aD0iNzI1Ljc4NTY4NDU4NTU3MTMiIGZpbGw9IiMwMDAwMDAiPiYjeGE7PHRpdGxlPnBvc3RncmVzcWw8L3RpdGxlPiYjeGE7PHBhdGggZD0iTTI0LjI5NSA5LjkyOWMtMC4wMTAgMC4xNTUtMC4wODIgMC4yOTItMC4xOTEgMC4zODdsLTAuMDAxIDAuMDAxYy0wLjEzMSAwLjE0My0wLjMwNiAwLjI0My0wLjUwNCAwLjI3OGwtMC4wMDUgMC4wMDFjLTAuMDI4IDAuMDA0LTAuMDYxIDAuMDA3LTAuMDk0IDAuMDA3aC0wYy0wLjAwMSAwLTAuMDAzIDAtMC4wMDQgMC0wLjMxMiAwLTAuNTgtMC4xODktMC42OTQtMC40NmwtMC4wMDItMC4wMDVjLTAuMDMwLTAuMjIxIDAuMzMtMC4zODggMC43MDEtMC40NHMwLjc2NCAwLjAxMSAwLjc5NCAwLjIzMXpNMTQuMzg1IDEwLjQ0M2MtMC4xMjEgMC4zMTEtMC40MTggMC41MjgtMC43NjYgMC41MjgtMC4wMDQgMC0wLjAwNy0wLTAuMDExLTBoMC4wMDFjLTAgMC0wIDAtMCAwLTAuMDM2IDAtMC4wNzAtMC4wMDMtMC4xMDUtMC4wMDdsMC4wMDQgMGMtMC4yNjEtMC4wNDctMC40ODMtMC4xOTEtMC42My0wLjM5MmwtMC4wMDItMC4wMDNjLTAuMDgyLTAuMDk0LTAuMTMyLTAuMjE5LTAuMTMyLTAuMzU0IDAtMCAwLTAuMDAxIDAtMC4wMDF2MGMwLjAxMi0wLjA3NyAwLjA1NS0wLjE0MyAwLjExNS0wLjE4NWwwLjAwMS0wLjAwMWMwLjE1Mi0wLjA4NCAwLjMzNC0wLjEzMyAwLjUyOC0wLjEzMyAwLjA4MyAwIDAuMTY0IDAuMDA5IDAuMjQyIDAuMDI2bC0wLjAwNy0wLjAwMWMwLjM5NSAwLjA1NSAwLjgwMyAwLjI0MiAwLjc2NCAwLjUyM3pNMjUuNDAzIDE4LjA4NmwtMC4xMDctMC4xMzQtMC4wNDQtMC4wNTVjMC40NTctMC44NDYgMC43MjUtMS44NTMgMC43MjUtMi45MjEgMC0wLjQ4OC0wLjA1Ni0wLjk2Mi0wLjE2Mi0xLjQxOGwwLjAwOCAwLjA0MmMtMC4wNzAtMC40NTMtMC4xMTEtMC45NzYtMC4xMTEtMS41MDggMC0wLjAwNyAwLTAuMDE0IDAtMC4wMjF2MC4wMDFjMC4wMjMtMC41MDEgMC4wNzYtMC45NyAwLjE1OC0xLjQyOWwtMC4wMTAgMC4wNjZjMC4wODktMC40NjQgMC4xNC0wLjk5OCAwLjE0LTEuNTQ0IDAtMC4wNTEtMC0wLjEwMS0wLjAwMS0wLjE1MWwwIDAuMDA4YzAuMDEyLTAuMDQ5IDAuMDE5LTAuMTA0IDAuMDE5LTAuMTYyIDAtMC4wMjctMC4wMDItMC4wNTMtMC4wMDQtMC4wNzlsMCAwLjAwM2MtMC40LTEuNTgtMS4xNTEtMi45NDktMi4xNjgtNC4wNzNsMC4wMDcgMC4wMDhjLTAuOTExLTEuMDY4LTIuMDMxLTEuOTI5LTMuMy0yLjUyM2wtMC4wNjAtMC4wMjVjMC42OTYtMC4xNDkgMS40OTYtMC4yMzQgMi4zMTYtMC4yMzQgMC4wNzUgMCAwLjE1IDAuMDAxIDAuMjI1IDAuMDAybC0wLjAxMS0wYzAuMDQ1LTAuMDAxIDAuMDk3LTAuMDAyIDAuMTUtMC4wMDIgMi4zNzggMCA0LjQ5NiAxLjEwOSA1Ljg2NiAyLjgzOGwwLjAxMiAwLjAxNmMwLjAyOCAwLjAzNiAwLjA1NiAwLjA3NyAwLjA4MCAwLjEybDAuMDAzIDAuMDA1YzAuOTA0IDEuNjk0LTAuMzQ1IDcuODQyLTMuNzMyIDEzLjE3MnpNMjUuMTE3IDkuMzIyYy0wLjAxNiAwLjQ1NS0wLjA2NCAwLjg4Ni0wLjE0IDEuMzA3bDAuMDA4LTAuMDU1Yy0wLjA3OCAwLjQyNS0wLjEzNCAwLjkzMS0wLjE1NyAxLjQ0NWwtMC4wMDEgMC4wMjVjLTAgMC4wMTctMCAwLjAzNi0wIDAuMDU2IDAgMC41NjcgMC4wNDIgMS4xMjQgMC4xMjQgMS42NjhsLTAuMDA4LTAuMDYxYzAuMDg1IDAuMzc3IDAuMTM0IDAuODA5IDAuMTM0IDEuMjU0IDAgMC43NjMtMC4xNDQgMS40OTMtMC40MDcgMi4xNjJsMC4wMTQtMC4wNDBjLTAuMDc2LTAuMTMxLTAuMTU1LTAuMjg5LTAuMjI0LTAuNDUzbC0wLjAxMS0wLjAyOWMtMC4wNjYtMC4xNTktMC4yMDktMC40MTYtMC40MDYtMC43Ny0wLjc2OS0xLjM4LTIuNTcxLTQuNjExLTEuNjQ5LTUuOTI5IDAuNDc0LTAuNjc4IDEuNjc2LTAuNzA3IDIuNzIyLTAuNTc5ek0yNC40MDYgMjAuOTA3Yy0wLjA1MS0xLjAzOSAwLjMzNi0xLjE0OCAwLjc0Ni0xLjI2M3EwLjA4NS0wLjAyMyAwLjE2OS0wLjA1MWMwLjA1MCAwLjA0NCAwLjEwNSAwLjA4NyAwLjE2MiAwLjEyNWwwLjAwNSAwLjAwM2MwLjYyIDAuMjczIDEuMzQyIDAuNDMxIDIuMTAyIDAuNDMxIDAuNTkyIDAgMS4xNjEtMC4wOTYgMS42OTMtMC4yNzRsLTAuMDM4IDAuMDExYy0wLjM0NCAwLjI5My0wLjczNiAwLjU0NC0xLjE2IDAuNzM4bC0wLjAzMSAwLjAxM2MtMC42NDQgMC4yNjQtMS4zOTEgMC40MjktMi4xNzMgMC40NTRsLTAuMDEwIDBjLTAuMTE5IDAuMDE4LTAuMjU2IDAuMDI5LTAuMzk1IDAuMDI5LTAuMzg2IDAtMC43NTQtMC4wODAtMS4wODctMC4yMjRsMC4wMTggMC4wMDd6TTIzLjI5MyAyMi45MzNjLTAuMDIxIDAuMjIxLTAuMDQ1IDAuNDctMC4wNzcgMC43NDVsLTAuMTgyIDAuNTQ4Yy0wLjAxNCAwLjA0MC0wLjAyMiAwLjA4Ni0wLjAyMyAwLjEzNHYwYzAuMDAxIDAuMDI3IDAuMDAxIDAuMDU4IDAuMDAxIDAuMDg5IDAgMC4zNTUtMC4wNTMgMC42OTktMC4xNTEgMS4wMjJsMC4wMDYtMC4wMjVjLTAuMTE2IDAuMzg5LTAuMTk2IDAuODQtMC4yMjMgMS4zMDVsLTAuMDAxIDAuMDE2Yy0wLjA1MiAxLjY4NC0xLjM1NSAzLjA0Ny0zLjAwOCAzLjE5NGwtMC4wMTMgMC4wMDFjLTEuODk0IDAuNDA2LTIuMjMtMC42MjEtMi41MjYtMS41MjdxLTAuMDQ1LTAuMTQyLTAuMDk2LTAuMjgzYy0wLjE2LTAuNjUyLTAuMjUyLTEuNDAxLTAuMjUyLTIuMTcxIDAtMC4zNiAwLjAyMC0wLjcxNSAwLjA1OS0xLjA2NWwtMC4wMDQgMC4wNDNjMC4wMDYtMC4xMjggMC4wMDktMC4yNzkgMC4wMDktMC40MyAwLTEuMDI2LTAuMTU0LTIuMDE2LTAuNDQxLTIuOTQ4bDAuMDE5IDAuMDcxcTAuMDA4LTAuNTUgMC4wMjQtMS4xMTRjMC0wLjAwMyAwLTAuMDA4IDAtMC4wMTIgMC0wLjA0Ni0wLjAwNy0wLjA5MC0wLjAyMC0wLjEzMmwwLjAwMSAwLjAwM2MtMC4wMTQtMC4xLTAuMDMzLTAuMTg4LTAuMDU4LTAuMjczbDAuMDAzIDAuMDEzYy0wLjE0MS0wLjUyMS0wLjQ5Ni0wLjk0MS0wLjk2NC0xLjE2NGwtMC4wMTEtMC4wMDVjLTAuMTc2LTAuMDg4LTAuMzg0LTAuMTQtMC42MDUtMC4xNC0wLjEwNCAwLTAuMjA1IDAuMDExLTAuMzAyIDAuMDMzbDAuMDA5LTAuMDAyYzAuMTI4LTAuNDcgMC4yNi0wLjg1NCAwLjQxMi0xLjIyOGwtMC4wMjYgMC4wNzMgMC4wNjYtMC4xNzdjMC4wNzQtMC4yIDAuMTY3LTAuNDA3IDAuMjY2LTAuNjI2IDAuNTQ2LTEuMTI0IDAuODY1LTIuNDQ1IDAuODY1LTMuODQxIDAtMC45MzgtMC4xNDQtMS44NDItMC40MTEtMi42OTJsMC4wMTcgMC4wNjNjLTAuMTgzLTEuMTA4LTEuMTM1LTEuOTQzLTIuMjgxLTEuOTQzLTAuMTggMC0wLjM1NiAwLjAyMS0wLjUyNCAwLjA2MGwwLjAxNi0wLjAwM2MtMC43OTYgMC4xMDQtMS41MTYgMC4zMzgtMi4xNzEgMC42ODJsMC4wMzUtMC4wMTdxLTAuMTI0IDAuMDYzLTAuMjQ1IDAuMTNjMC4wOTEtMi4xNDcgMC44OTYtNC4wOTAgMi4xODEtNS42MTVsLTAuMDEyIDAuMDE0YzAuMTE4LTAuMTE5IDAuMjQyLTAuMjMyIDAuMzctMC4zMzhsMC4wMDktMC4wMDdjMC4wNjktMC4wMTQgMC4xMy0wLjA0MiAwLjE4Mi0wLjA4MWwtMC4wMDEgMC4wMDFjMC44OTMtMC42NTQgMi4wMTQtMS4wNDcgMy4yMjctMS4wNDcgMC4wOTcgMCAwLjE5MyAwLjAwMiAwLjI4OCAwLjAwN2wtMC4wMTMtMC4wMDFjMC41MjYgMC4wMDggMS4wMzQgMC4wNDQgMS41MzQgMC4xMDhsLTAuMDY3LTAuMDA3YzIuMDQzIDAuMzkzIDMuNzg3IDEuNDYzIDUuMDMyIDIuOTYzbDAuMDExIDAuMDE0YzAuNzQ4IDAuODY5IDEuMzU0IDEuODg3IDEuNzY2IDIuOTk4bDAuMDIyIDAuMDY5Yy0wLjI1Ny0wLjA2OS0wLjU1Mi0wLjEwOS0wLjg1Ni0wLjEwOS0wLjk4MyAwLTEuODY4IDAuNDE2LTIuNDkgMS4wODFsLTAuMDAyIDAuMDAyYy0xLjI0IDEuNzczIDAuNjc5IDUuMjE1IDEuNjAxIDYuODY5IDAuMTY5IDAuMzAzIDAuMzE1IDAuNTY1IDAuMzYxIDAuNjc2IDAuMjYgMC42MDEgMC41ODcgMS4xMTggMC45OCAxLjU3N2wtMC4wMDctMC4wMDhjMC4wODcgMC4xMDkgMC4xNzEgMC4yMTQgMC4yMzYgMC4zMDYtMC41MDEgMC4xNDQtMS40MDEgMC40NzgtMS4zMTkgMi4xNDYtMC4wMTUgMC4xOTUtMC4wNTMgMC41NTgtMC4xMDQgMS4wMTgtMC4wNTQgMC4yNjktMC4wOTggMC41OTctMC4xMjMgMC45M2wtMC4wMDIgMC4wMjh6TTE0LjA5MSAxNy4yMTlsLTAuMDY2IDAuMTc2Yy0wLjEzNyAwLjMyOC0wLjI3OSAwLjc0NS0wLjM5NyAxLjE3MmwtMC4wMTkgMC4wODFjLTAuODkzLTAuMDEzLTEuNjk1LTAuMzk1LTIuMjYxLTEuMDAxbC0wLjAwMi0wLjAwMmMtMC42MzItMC42NjctMS4wMjAtMS41Ny0xLjAyMC0yLjU2NCAwLTAuMTk4IDAuMDE1LTAuMzkyIDAuMDQ1LTAuNTgybC0wLjAwMyAwLjAyMWMwLjA5Ny0wLjcyIDAuMTUzLTEuNTUxIDAuMTUzLTIuMzk2IDAtMC41MDItMC4wMjAtMC45OTktMC4wNTgtMS40OTFsMC4wMDQgMC4wNjVjLTAuMDA2LTAuMTA3LTAuMDEyLTAuMjAxLTAuMDE1LTAuMjc1IDAuODA1LTAuNjExIDEuODI0LTAuOTggMi45MjktMC45OCAwLjEzMiAwIDAuMjYyIDAuMDA1IDAuMzkxIDAuMDE1bC0wLjAxNy0wLjAwMWMwLjU1NCAwLjEyOSAwLjk3MSAwLjU4OCAxLjAzNyAxLjE1M2wwLjAwMSAwLjAwNmMwLjIzOCAwLjcyOCAwLjM3NSAxLjU2NiAwLjM3NSAyLjQzNSAwIDEuMjY2LTAuMjkxIDIuNDY0LTAuODA5IDMuNTMybDAuMDIxLTAuMDQ4Yy0wLjEwNSAwLjIzMy0wLjIwNCAwLjQ1My0wLjI4OSAwLjY4MnpNMTEuNDc0IDIyLjIwM2MtMC4yMDUtMC4wNTItMC4zODUtMC4xMjgtMC41NDktMC4yMjdsMC4wMDkgMC4wMDVjMC4xNzItMC4wNzMgMC4zNzUtMC4xMzQgMC41ODUtMC4xNzNsMC4wMTktMC4wMDNjMS42MDQtMC4zMyAxLjg1MS0wLjU2MyAyLjM5Mi0xLjI1IDAuMTI0LTAuMTU3IDAuMjY0LTAuMzM2IDAuNDU5LTAuNTUzIDAuMDQwLTAuMDQ1IDAuMDcyLTAuMDk5IDAuMDkxLTAuMTU5bDAuMDAxLTAuMDAzYzAuMjEzLTAuMTg5IDAuMzQtMC4xMzcgMC41NDYtMC4wNTIgMC4yMjcgMC4xMjUgMC4zOTUgMC4zMzYgMC40NiAwLjU4N2wwLjAwMSAwLjAwN2MwLjAyMyAwLjA2NSAwLjAzNyAwLjEzOSAwLjAzNyAwLjIxNyAwIDAuMTI1LTAuMDM1IDAuMjQyLTAuMDk1IDAuMzQxbDAuMDAyLTAuMDAzYy0wLjY0NSAwLjg4Mi0xLjY3NiAxLjQ0OS0yLjgzOSAxLjQ0OS0wLjQgMC0wLjc4NS0wLjA2Ny0xLjE0NC0wLjE5MWwwLjAyNSAwLjAwN3pNMy45NjcgMTUuODQ2Yy0wLjY1MS0xLjk4NS0xLjE4MS00LjM0LTEuNDk0LTYuNzY0bC0wLjAyMS0wLjE5OWMtMC4wNjEtMC4zMjItMC4wOTUtMC42OTMtMC4wOTUtMS4wNzEgMC0xLjgwNiAwLjc4OS0zLjQyNyAyLjA0MS00LjUzN2wwLjAwNi0wLjAwNWMyLjI5NS0xLjYyMyA2LjA0OC0wLjY3NiA3LjYzMy0wLjE2M2wtMC4wMTIgMC4wMTJjLTEuNTM1IDEuODcyLTIuNDY2IDQuMjkyLTIuNDY2IDYuOTI4IDAgMC4wOTAgMC4wMDEgMC4xOCAwLjAwMyAwLjI3bC0wLTAuMDEzYy0wIDAuMTAzIDAuMDA4IDAuMjQ5IDAuMDIwIDAuNDQ5IDAuMDMzIDAuNDEgMC4wNTIgMC44ODggMC4wNTIgMS4zNzEgMCAwLjgwMi0wLjA1MiAxLjU5Mi0wLjE1NCAyLjM2N2wwLjAxMC0wLjA5MWMtMC4wMzMgMC4yMDYtMC4wNTEgMC40NDQtMC4wNTEgMC42ODYgMCAxLjIzMSAwLjQ4MiAyLjM1IDEuMjY5IDMuMTc3bC0wLjAwMi0wLjAwMnEwLjE1MSAwLjE1OCAwLjMxNSAwLjI5N2MtMC40MzMgMC40NjQtMS4zNzUgMS40OS0yLjM3NyAyLjY5Ni0wLjcwOSAwLjg1My0xLjE5OSAwLjY4OS0xLjM2IDAuNjM2LTAuNjg1LTAuMzY4LTEuMjIyLTAuOTM5LTEuNTM4LTEuNjMxbC0wLjAwOS0wLjAyMmMtMC42ODQtMS4yNTItMS4yODYtMi43MDgtMS43My00LjIzMmwtMC4wMzktMC4xNTd6TTMwLjQ0NSAxOS40MDNjLTAuMDE5LTAuMDU3LTAuMDQzLTAuMTA2LTAuMDcyLTAuMTUxbDAuMDAyIDAuMDAzYy0wLjE3NC0wLjMyOS0wLjU5Ni0wLjQyNy0xLjI1OS0wLjI5LTIuMDY2IDAuNDI2LTIuODY2IDAuMTY0LTMuMTU2LTAuMDI0IDEuNjE3LTIuNDUyIDIuOTE4LTUuMjkyIDMuNzUxLTguMzI2bDAuMDQ5LTAuMjA5YzAuMzM5LTEuMzEzIDAuOTk3LTQuNDAzIDAuMTUzLTUuOTEzLTAuMDU5LTAuMTEyLTAuMTIyLTAuMjA4LTAuMTkyLTAuMjk4bDAuMDAzIDAuMDA0Yy0xLjU2My0xLjk1NS0zLjk0OC0zLjE5Ni02LjYyMy0zLjE5Ni0wLjA3NiAwLTAuMTUyIDAuMDAxLTAuMjI3IDAuMDAzbDAuMDExLTBjLTAuMDQyLTAuMDAxLTAuMDkxLTAuMDAxLTAuMTQxLTAuMDAxLTEuMzQyIDAtMi42MzMgMC4yMi0zLjgzOCAwLjYyNWwwLjA4NS0wLjAyNXEtMC4zMjEtMC4wNjAtMC42NDUtMC4xMDJjLTAuNDg4LTAuMDkzLTEuMDUzLTAuMTUxLTEuNjMxLTAuMTZsLTAuMDA4LTBjLTAuMDgzLTAuMDA0LTAuMTgtMC4wMDYtMC4yNzgtMC4wMDYtMS4zMTUgMC0yLjUzOCAwLjM5NC0zLjU1NyAxLjA3MWwwLjAyNC0wLjAxNWMtMS4wNzEtMC40MDEtNS45ODQtMi4wNTYtOS4wMjUgMC4wOTgtMS40ODkgMS4yNy0yLjQyNiAzLjE0Ny0yLjQyNiA1LjI0NCAwIDAuNDA1IDAuMDM1IDAuODAyIDAuMTAyIDEuMTg4bC0wLjAwNi0wLjA0MWMwLjMzNSAyLjY5OCAwLjg3OSA1LjEyNiAxLjYzMiA3LjQ2MWwtMC4wNzktMC4yODRjMC40OTMgMS43MTYgMS4xMDMgMy4yMDEgMS44NTIgNC42bC0wLjA2MS0wLjEyNGMwLjQzMyAwLjk4NCAxLjE4MiAxLjc2NCAyLjExNiAyLjIyNWwwLjAyNiAwLjAxMmMwLjE2OCAwLjA0OSAwLjM2MSAwLjA3OCAwLjU2MSAwLjA3OCAwLjc0MiAwIDEuMzkyLTAuMzkxIDEuNzU2LTAuOTc5bDAuMDA1LTAuMDA5YzEuMDAxLTEuMjA0IDEuOTg3LTIuMjgyIDIuNDMtMi43NTggMC41MDIgMC4yNzkgMS4wOTcgMC40NTEgMS43MzEgMC40NzFsMC4wMDYgMCAwLjAwMSAwLjAwNXEtMC4xNTggMC4xODgtMC4zMDkgMC4zODJjLTAuNDI0IDAuNTM4LTAuNTEyIDAuNjQ5LTEuODc1IDAuOTMtMC4zODggMC4wODAtMS40MTggMC4yOTItMS40MzMgMS4wMTQtMCAwLjAwNC0wIDAuMDA4LTAgMC4wMTMgMCAwLjE0NyAwLjA0MyAwLjI4NCAwLjExNyAwLjM5OWwtMC4wMDItMC4wMDNjMC4zMTIgMC4zOTUgMC43NTEgMC42NzggMS4yNTQgMC43ODhsMC4wMTUgMC4wMDNjMC4zOTkgMC4xMyAwLjg1OSAwLjIwNSAxLjMzNSAwLjIwNSAxLjEgMCAyLjEwNi0wLjM5OCAyLjg4NC0xLjA1OGwtMC4wMDYgMC4wMDVjLTAuMDI0IDAuNDE4LTAuMDM3IDAuOTA4LTAuMDM3IDEuNDAxIDAgMS43NTMgMC4xNzEgMy40NjcgMC40OTYgNS4xMjVsLTAuMDI3LTAuMTY3YzAuMzgyIDEuMzczIDEuNjE2IDIuMzY3IDMuMDg0IDIuMzhoMC4wMDJjMC4zNjktMC4wMDMgMC43MjYtMC4wNDYgMS4wNzAtMC4xMjRsLTAuMDMzIDAuMDA2YzEuOTE5LTAuMTcxIDMuNDMxLTEuNzA1IDMuNTY3LTMuNjE5bDAuMDAxLTAuMDEyYzAuMTg4LTEuMDg4IDAuNTAyLTMuNTkzIDAuNjczLTUuMTI1IDAuMDA4LTAuMDY1IDAuMDM0LTAuMTIzIDAuMDcyLTAuMTcxbC0wLjAwMSAwLjAwMWMwLjAwMS0wLjAwMSAwLjA4Ny0wLjA1OSAwLjUzNCAwLjAzOGwwLjA1NSAwLjAwOSAwLjMxNyAwLjAyOCAwLjAxOSAwLjAwMWMwLjA5NSAwLjAwNCAwLjIwNyAwLjAwNyAwLjMxOSAwLjAwNyAxLjAyNCAwIDIuMDAyLTAuMiAyLjg5NS0wLjU2NGwtMC4wNTEgMC4wMThjMC44MDUtMC4zNzMgMi4yNTYtMS4yOSAxLjk5My0yLjA4N3oiLz4mI3hhOzwvc3ZnPg==;container=0;fontSize=20;fontFamily=Atkinson Hyperlegible Next;strokeWidth=2;strokeColor=#000000;opacity=90;fontColor=default;resizable=1;" parent="p2MmfGQ7m_cJtWzehYHR-40" vertex="1">
          <mxGeometry x="73" y="32.5" width="14.51" height="15" as="geometry" />
        </mxCell>
        <mxCell id="p2MmfGQ7m_cJtWzehYHR-42" style="edgeStyle=orthogonalEdgeStyle;shape=connector;curved=0;rounded=1;jumpStyle=line;jumpSize=6;orthogonalLoop=1;jettySize=auto;html=1;entryX=0.5;entryY=0;entryDx=0;entryDy=0;entryPerimeter=0;shadow=0;dashed=1;strokeColor=default;strokeWidth=1;align=center;verticalAlign=middle;fontFamily=Arial;fontSize=12;fontColor=default;labelBackgroundColor=default;resizable=1;startSize=6;endArrow=block;endFill=1;endSize=6;flowAnimation=0;" parent="ZQqou7pGLEDfB2Juubly-1" source="p2MmfGQ7m_cJtWzehYHR-23" target="p2MmfGQ7m_cJtWzehYHR-61" edge="1">
          <mxGeometry relative="1" as="geometry">
            <mxPoint x="120" y="445" as="targetPoint" />
          </mxGeometry>
        </mxCell>
        <mxCell id="p2MmfGQ7m_cJtWzehYHR-44" value="" style="group" parent="ZQqou7pGLEDfB2Juubly-1" vertex="1" connectable="0">
          <mxGeometry x="220" y="465" width="160" height="120" as="geometry" />
        </mxCell>
        <mxCell id="p2MmfGQ7m_cJtWzehYHR-45" value="JupyterLab" style="rounded=1;whiteSpace=wrap;html=1;fontFamily=Arial;fontSize=12;fontColor=default;labelBackgroundColor=default;resizable=1;verticalAlign=top;spacing=0;" parent="p2MmfGQ7m_cJtWzehYHR-44" vertex="1">
          <mxGeometry width="160" height="45" as="geometry" />
        </mxCell>
        <mxCell id="p2MmfGQ7m_cJtWzehYHR-46" value="Container:&amp;nbsp;" style="rounded=0;whiteSpace=wrap;html=1;fontFamily=Arial;fontSize=12;fontColor=default;labelBackgroundColor=default;resizable=1;" parent="p2MmfGQ7m_cJtWzehYHR-44" vertex="1">
          <mxGeometry y="25" width="160" height="20" as="geometry" />
        </mxCell>
        <mxCell id="p2MmfGQ7m_cJtWzehYHR-47" value="- Deploys premade JupyterLab containers" style="rounded=0;whiteSpace=wrap;html=1;fontFamily=Arial;fontSize=12;fontColor=default;labelBackgroundColor=default;resizable=1;align=left;verticalAlign=top;" parent="p2MmfGQ7m_cJtWzehYHR-44" vertex="1">
          <mxGeometry y="45" width="160" height="75" as="geometry" />
        </mxCell>
        <mxCell id="p2MmfGQ7m_cJtWzehYHR-48" style="edgeStyle=orthogonalEdgeStyle;shape=connector;curved=0;rounded=1;jumpStyle=line;jumpSize=6;orthogonalLoop=1;jettySize=auto;html=1;entryX=0.5;entryY=0;entryDx=0;entryDy=0;shadow=0;dashed=1;strokeColor=default;strokeWidth=1;align=center;verticalAlign=middle;fontFamily=Arial;fontSize=12;fontColor=default;labelBackgroundColor=default;resizable=1;startSize=6;endArrow=block;endFill=1;endSize=6;flowAnimation=0;" parent="ZQqou7pGLEDfB2Juubly-1" source="p2MmfGQ7m_cJtWzehYHR-19" target="p2MmfGQ7m_cJtWzehYHR-45" edge="1">
          <mxGeometry relative="1" as="geometry" />
        </mxCell>
        <mxCell id="p2MmfGQ7m_cJtWzehYHR-49" value="" style="group" parent="ZQqou7pGLEDfB2Juubly-1" vertex="1" connectable="0">
          <mxGeometry x="560" y="465" width="160" height="120" as="geometry" />
        </mxCell>
        <mxCell id="p2MmfGQ7m_cJtWzehYHR-50" value="Package Manager" style="rounded=1;whiteSpace=wrap;html=1;fontFamily=Arial;fontSize=12;fontColor=default;labelBackgroundColor=default;resizable=1;verticalAlign=top;spacing=0;" parent="p2MmfGQ7m_cJtWzehYHR-49" vertex="1">
          <mxGeometry width="160" height="45" as="geometry" />
        </mxCell>
        <mxCell id="p2MmfGQ7m_cJtWzehYHR-51" value="Container:&amp;nbsp;" style="rounded=0;whiteSpace=wrap;html=1;fontFamily=Arial;fontSize=12;fontColor=default;labelBackgroundColor=default;resizable=1;" parent="p2MmfGQ7m_cJtWzehYHR-49" vertex="1">
          <mxGeometry y="25" width="160" height="20" as="geometry" />
        </mxCell>
        <mxCell id="p2MmfGQ7m_cJtWzehYHR-52" value="- Contains standard Python and R packages&lt;div&gt;- Includes HADES&lt;/div&gt;" style="rounded=0;whiteSpace=wrap;html=1;fontFamily=Arial;fontSize=12;fontColor=default;labelBackgroundColor=default;resizable=1;align=left;verticalAlign=top;" parent="p2MmfGQ7m_cJtWzehYHR-49" vertex="1">
          <mxGeometry y="45" width="160" height="75" as="geometry" />
        </mxCell>
        <mxCell id="p2MmfGQ7m_cJtWzehYHR-53" value="connects to" style="edgeStyle=orthogonalEdgeStyle;shape=connector;curved=0;rounded=1;jumpStyle=line;jumpSize=6;orthogonalLoop=1;jettySize=auto;html=1;entryX=0.5;entryY=0;entryDx=0;entryDy=0;entryPerimeter=0;shadow=0;dashed=1;strokeColor=default;strokeWidth=1;align=center;verticalAlign=middle;fontFamily=Arial;fontSize=12;fontColor=default;labelBackgroundColor=default;resizable=1;startSize=6;endArrow=block;endFill=1;endSize=6;flowAnimation=0;" parent="ZQqou7pGLEDfB2Juubly-1" source="p2MmfGQ7m_cJtWzehYHR-47" target="1GqAnjkuDoBz8iE_yqv2-16" edge="1">
          <mxGeometry relative="1" as="geometry" />
        </mxCell>
        <mxCell id="p2MmfGQ7m_cJtWzehYHR-59" value="retrieves packages from" style="edgeStyle=orthogonalEdgeStyle;shape=connector;curved=0;rounded=1;jumpStyle=line;jumpSize=6;orthogonalLoop=1;jettySize=auto;html=1;shadow=0;dashed=1;strokeColor=default;strokeWidth=1;align=center;verticalAlign=middle;fontFamily=Arial;fontSize=12;fontColor=default;labelBackgroundColor=default;resizable=1;startSize=6;endArrow=block;endFill=1;endSize=6;flowAnimation=0;startArrow=block;startFill=1;" parent="ZQqou7pGLEDfB2Juubly-1" source="p2MmfGQ7m_cJtWzehYHR-47" target="p2MmfGQ7m_cJtWzehYHR-52" edge="1">
          <mxGeometry relative="1" as="geometry" />
        </mxCell>
        <mxCell id="p2MmfGQ7m_cJtWzehYHR-60" value="" style="group" parent="ZQqou7pGLEDfB2Juubly-1" vertex="1" connectable="0">
          <mxGeometry x="40" y="505" width="160" height="80" as="geometry" />
        </mxCell>
        <mxCell id="p2MmfGQ7m_cJtWzehYHR-61" value="&lt;font style=&quot;font-size: 12px;&quot;&gt;OpenEMR Database&lt;/font&gt;" style="shape=cylinder3;whiteSpace=wrap;html=1;boundedLbl=1;backgroundOutline=1;size=15;fontFamily=Arial;fontSize=10;fontColor=default;labelBackgroundColor=default;resizable=1;strokeWidth=1;" parent="p2MmfGQ7m_cJtWzehYHR-60" vertex="1">
          <mxGeometry width="160" height="80" as="geometry" />
        </mxCell>
        <mxCell id="1GqAnjkuDoBz8iE_yqv2-19" value="" style="shape=image;verticalLabelPosition=bottom;labelBackgroundColor=default;verticalAlign=top;aspect=fixed;imageAspect=0;editableCssRules=.*;image=data:image/svg+xml,PHN2ZyB4bWxucz0iaHR0cDovL3d3dy53My5vcmcvMjAwMC9zdmciIHZpZXdCb3g9Ii0wLjAwNDAwMDk5MTU4Mjg3MDQ4MyAwLjAwMTAwMDMxNDk1MDk0Mjk5MzIgMjQuNDIzOTk5Nzg2Mzc2OTUzIDIzLjk5NDk5NTExNzE4NzUiIGhlaWdodD0iNzk5LjgzMzE3MDU3MjkxNjciIHdpZHRoPSI4MTQuMTMzMzI2MjEyNTY1MiIgZmlsbD0iIzAwMDAwMCI+PHBhdGggZD0ibTI0LjEyOSAyMy40MTItLjUwOC0uNDg0Yy0uMjUxLS4zMzEtLjUxOC0uNjI0LS44MDktLjg5MWwtLjAwNS0uMDA0cS0uNDQ4LS40MDctLjkzMS0uNzc0LS4zODctLjI2Ni0xLjA2NC0uNjQxYy0uMzcxLS4xNjctLjY2MS0uNDYtLjgxOC0uODI0bC0uMDA0LS4wMS0uMDQ4LS4wMjRjLjIxMi0uMDIxLjQwNi0uMDYuNTkyLS4xMTVsLS4wMjMuMDA2LjU3LS4xNTdjLjIzNi0uMDc0LjUwOS0uMTIyLjc5Mi0uMTMzaC4wMDZjLjI5OC0uMDEyLjU3OS0uMDYuODQ3LS4xMzlsLS4wMjUuMDA2cS4xOTQtLjA0OC4zOTktLjEwOXQuMzUxLS4xMDl2LS4xNjlxLS4xNDUtLjIxNy0uMzUxLS40OTZjLS4xMzEtLjE3OC0uMjc4LS4zMzMtLjQ0My0uNDY4bC0uMDA1LS4wMDRxLS42MjktLjU1Ni0xLjMwMy0xLjA3NmMtLjM5Ni0uMzA5LS44NDUtLjYyNC0xLjMxMS0uOTE2bC0uMDY4LS4wNGMtLjI0Ni0uMTYyLS41MjgtLjMxMi0uODI1LS40MzVsLS4wMzQtLjAxMnEtLjQ0OC0uMTgyLS44ODMtLjM5OWMtLjA5Ny0uMDQ4LS4yMS0uMDktLjMyNy0uMTE5bC0uMDExLS4wMDJjLS4xMTctLjAyNC0uMjE3LS4wODQtLjI5LS4xNjlsLS4wMDEtLjAwMWMtLjEzOC0uMTgyLS4yNTktLjM4OS0uMzU1LS42MDlsLS4wMDgtLjAycS0uMTQ1LS4zMzktLjMxNC0uNjUxLS4zNjMtLjcwMi0uNzAyLTEuNDI3dC0uNjUxLTEuNDUycS0uMjE3LS40ODQtLjM5OS0uOTY3Yy0uMTM0LS4zNTQtLjI4NS0uNjU3LS40NjEtLjk0MmwuMDEzLjAyM2MtLjQzMi0uNzM2LS44NjMtMS4zNjQtMS4zMzEtMS45NjFsLjAyOC4wMzhjLS40NjMtLjU4NC0uOTQzLTEuMTA2LTEuNDU5LTEuNTlsLS4wMDgtLjAwN2MtLjUwOS0uNDc4LTEuMDU3LS45MzQtMS42MzItMS4zNTZsLS4wNDktLjAzNXEtLjg5Ni0uNjUxLTEuOTYtMS4yODJjLS4yODUtLjE2OC0uNjE2LS4zMDUtLjk2NS0uMzkzbC0uMDI2LS4wMDYtMS4xMTMtLjI3OC0uNjI5LS4wNDhxLS4zMTQtLjAyNC0uNjI5LS4wMjRjLS4xNDgtLjA3OC0uMjc1LS4xNzEtLjM4Ny0uMjc5LS4xMS0uMTA1LS4yMjktLjIwNC0uMzUzLS4yOTVsLS4wMS0uMDA3Yy0uNjA1LS4zNTMtMS4zMDgtLjY3Ni0yLjA0My0uOTNsLS4wODUtLjAyNmMtLjE5My0uMTEzLS40MjUtLjE3OS0uNjcyLS4xNzktLjE3NiAwLS4zNDUuMDM0LS40OTkuMDk1bC4wMDktLjAwM2MtLjM4LjE1MS0uNjcuNDU4LS43OTUuODRsLS4wMDMuMDFjLS4wNzMuMTcyLS4xMTUuMzcxLS4xMTUuNTgxIDAgLjM2OC4xMy43MDUuMzQ3Ljk2OGwtLjAwMi0uMDAzcS41NDQuNzI1LjgzNCAxLjE0LjIxNy4yOTEuNDQ4LjYwNWMuMTQxLjE4OC4yNjYuNDAzLjM2Ny42M2wuMDA4LjAyMWMuMDU2LjExOS4xMDUuMjYxLjE0MS40MDdsLjAwMy4wMTZxLjA0OC4yMDYuMTIxLjQ0OC4yMTcuNTU2LjQxMSAxLjE0Yy4xNDEuNDI1LjI5Ny43ODUuNDc4IDEuMTI4bC0uMDE5LS4wNHEuMTQ1LjI2Ni4yOTEuNTJ0LjMxNC40OTZjLjA2NS4wOTguMTQ3LjE3OS4yNDEuMjQybC4wMDMuMDAyYy4wOTkuMDcyLjE2NC4xODUuMTY5LjMxM3YuMDAxYy0uMTE0LjE2OC0uMTkxLjM2OS0uMjE3LjU4NmwtLjAwMS4wMDZjLS4wMzUuMjUzLS4wODUuNDc4LS4xNTMuNjk1bC4wMDgtLjAzYy0uMjIzLjY2Ni0uMzUxIDEuNDM0LS4zNTEgMi4yMzEgMCAuMjU4LjAxMy41MTIuMDQuNzYzbC0uMDAzLS4wMzFjLjA2Ljk1OC4zNDkgMS44MzguODEyIDIuNmwtLjAxNC0uMDI1Yy4xOTcuMjk1LjQwOC41NTIuNjQxLjc4Ny4xNjguMTg4LjQxMi4zMDYuNjg0LjMwNi4xNTIgMCAuMjk2LS4wMzcuNDIyLS4xMDNsLS4wMDUuMDAyYy4zNS0uMTI2LjU5OS0uNDQ2LjYxNy0uODI3di0uMDAyYy4wNDgtLjQ3NC4xMi0uODk4LjIxOS0xLjMxMmwtLjAxMy4wNjdjLjAyNC0uMDYzLjAzOC0uMTM1LjAzOC0uMjExIDAtLjAxNS0uMDAxLS4wMy0uMDAyLS4wNDV2LjAwMnEtLjAxMi0uMTA5LjEzMy0uMjA2di4wNDhxLjE0NS4zMzkuMzAyLjY3N3QuMzI2LjY3N2MuMjk1LjQ0OS42MDguODQxLjk1MiAxLjIwMmwtLjAwMy0uMDAzYy4zNDUuMzcyLjcyMS43MDYgMS4xMjcgMS4wMDFsLjAyMi4wMTVjLjIxMi4xNjIuMzk4LjMzNy41NjYuNTI4bC4wMDQuMDA0Yy4xNTguMTg2LjM0Ny4zMzkuNTYuNDU0bC4wMS4wMDV2LS4wMjRoLjA0OGMtLjAzOS0uMDg3LS4xMDItLjE1Ny0uMTgtLjIwNWwtLjAwMi0uMDAxYy0uMDc5LS4wNDQtLjE0Ny0uMDg4LS4yMTEtLjEzNmwuMDA1LjAwM3EtLjIxNy0uMjE3LS40NDgtLjQ4NHQtLjQyMy0uNTA4cS0uNTA4LS43MDItLjk2OS0xLjQ2N3QtLjg3MS0xLjU1NXEtLjE5NC0uMzg3LS4zNzUtLjc5OHQtLjM1MS0uNzk4Yy0uMDQ5LS4wOTktLjA4My0uMjEzLS4wOTYtLjMzNHYtLjAwNWMtLjAwNi0uMTE1LS4wNzItLjIxNC0uMTY4LS4yNjVsLS4wMDItLjAwMWMtLjEyMS4yMDYtLjI1NS4zODQtLjQwOC41NDVsLjAwMS0uMDAxYy0uMTU5LjE2Ny0uMjg5LjM2NC0uMzgyLjU4bC0uMDA1LjAxM2MtLjE0MS4zNDItLjI0NC43MzktLjI4OSAxLjE1NGwtLjAwMi4wMTlxLS4wNzIuNjQxLS4xNDUgMS4zMThsLS4wNDguMDI0LS4wMjQuMDI0Yy0uMjYtLjA1My0uNDc0LS4yMTktLjU5LS40NDNsLS4wMDItLjAwNXEtLjE4Mi0uMzUxLS4zMjYtLjY5Yy0uMjQ4LS42MzctLjQwMi0xLjM3NC0uNDIzLTIuMTQ0di0uMDA5Yy0uMDA5LS4xMjItLjAxMy0uMjY1LS4wMTMtLjQwOCAwLS42NjYuMTA1LTEuMzA4LjI5OS0xLjkxbC0uMDEyLjA0NHEuMDcyLS4yNjYuMzE0LS44OTZ0LjA5Ny0uODcxYy0uMDUtLjE2NS0uMTQzLS4zMDQtLjI2NS0uNDFsLS4wMDEtLjAwMWMtLjEyMi0uMTA2LS4yMzMtLjIxNy0uMzM1LS4zMzVsLS4wMDMtLjAwNHEtLjE2OS0uMjQ0LS4zMjYtLjUydC0uMjc4LS41NDRjLS4xNjUtLjM4Mi0uMzM0LS44NjEtLjQ3NC0xLjM1M2wtLjAyMi0uMDg5Yy0uMTU5LS41NjUtLjMzNi0xLjA0My0uNTQ2LTEuNTAzbC4wMjYuMDY0Yy0uMTExLS4yNTItLjI0LS40Ny0uMzktLjY2OWwuMDA2LjAwOHEtLjI0NC0uMzI2LS40MzYtLjYxNy0uMjQ0LS4zMTQtLjQ4NC0uNjA1Yy0uMTYzLS4xOTctLjMwOC0uNDE5LS40MjYtLjY1N2wtLjAwOS0uMDJjLS4wNDgtLjA5Ny0uMDktLjIxLS4xMTktLjMyN2wtLjAwMi0uMDExYy0uMDExLS4wMzUtLjAxNy0uMDc2LS4wMTctLjExNyAwLS4wODIuMDI0LS4xNTkuMDY2LS4yMjNsLS4wMDEuMDAyYy4wMTEtLjA1Ni4wMzctLjEwNS4wNzMtLjE0NS4wMzktLjAzNS4wODktLjA2MS4xNDMtLjA3MmguMDAyYy4wODUtLjA1NS4xODgtLjA4OC4zLS4wODguMDg0IDAgLjE2NS4wMTkuMjM2LjA1M2wtLjAwMy0uMDAxYy4yMTkuMDYyLjM5Ni4xMjQuNTY5LjE5NWwtLjAzNi0uMDEzcS40NTkuMTk0Ljg0Ny4zNzVjLjI5OC4xNDIuNTUyLjI5Mi43OTIuNDU5bC0uMDE4LS4wMTJxLjE5NC4xMjEuMzg3LjI2NnQuNDExLjI5MWguMzM5cS4zODcgMCAuODIyLjAzN2MuMjkzLjAyMy41NjQuMDc4LjgyMi4xNjRsLS4wMjQtLjAwN2MuNDgxLjE0My44OTQuMzEyIDEuMjg2LjUxNWwtLjA0MS0uMDE5cS41OTMuMzAyIDEuMTI1LjY0MWMuNTg5LjM2NyAxLjA5OC43NDMgMS41NzcgMS4xNTRsLS4wMTctLjAxNGMuNS40MjguOTU0Ljg2NyAxLjM4IDEuMzMxbC4wMS4wMTJjLjQxNi40NTQuODEzLjk0NyAxLjE3NiAxLjQ2NGwuMDMxLjA0N2MuMzM0LjQ3Mi42NzEgMS4wMTguOTc0IDEuNTg0bC4wNDIuMDg1Yy4wODEuMTU0LjE2My4zNDMuMjM0LjUzNmwuMDExLjAzM3EuMDk3LjI3OC4yMTcuNTcuMjY2LjYwNS41NyAxLjIyMXQuNTcgMS4xOThsLjUzMiAxLjE2MWMuMTg3LjQwNi4zOTYuNzU2LjYzOSAxLjA3OWwtLjAxMS0uMDE1Yy4yMDMuMjE3LjQ3NC4zNjkuNzc4LjQyMmwuMDA4LjAwMWMuMzY4LjA5Mi42NzguMTk2Ljk3OC4zMTlsLS4wNDctLjAxN2MuMTQzLjA2NS4zMjcuMTM0LjUxNi4xOTVsLjA0LjAxMWMuMjEyLjA2NS4zOTYuMTUxLjU2NS4yNTlsLS4wMDktLjAwNWMuMzI3LjE4My42MDQuMzYzLjg2OC41NTlsLS4wMjEtLjAxNXEuNDExLjMwMi44MjIuNTcuMTk0LjE0NS42NTEuNDIzdC40ODQuNTJjLS4xMTQtLjAwNC0uMjQ5LS4wMDctLjM4NC0uMDA3LS40OTIgMC0uOTc2LjAzMi0xLjQ1LjA5NGwuMDU2LS4wMDZjLS41MzYuMDcyLTEuMDIyLjIwMy0xLjQ3OS4zOWwuMDQtLjAxNGMtLjExMy4wNDktLjI0OC4wOTQtLjM4OC4xMjlsLS4wMTkuMDA0Yy0uMTQyLjAyMS0uMjUyLjEzNS0uMjY2LjI3N3YuMDAxYy4wNjEuMDc2LjExLjE2NC4xNDMuMjZsLjAwMi4wMDZjLjAzNC4xMDIuMDc1LjE5LjEyNS4yNzJsLS4wMDMtLjAwNmMuMTE5LjIxMS4yNDcuMzkzLjM5MS41NjFsLS4wMDQtLjAwNWMuMTQxLjE3NC4zLjMyNS40NzYuNDU0bC4wMDcuMDA1cS4yNDQuMTk0LjUwOC4zOTljLjE2MS4xMjYuMzQzLjI1LjUzMi4zNjJsLjAyNC4wMTNjLjI4NC4xNzQuNjE0LjM0Ljk1OC40NzlsLjA0Ni4wMTZjLjM3NC4xNS42OTUuMzI0Ljk5My41MzFsLS4wMTYtLjAxMXEuMjkxLjE2OS41OC4zNzV0LjU1Ni4zOTljLjA3My4wNzIuMTM3LjE1Mi4xOTEuMjM5bC4wMDMuMDA1Yy4wOTEuMTA0LjIxNy4xNzUuMzYuMTkzaC4wMDN2LS4wNDhjLS4wODgtLjA2Ny0uMTUzLS4xNi0uMTg0LS4yNjdsLS4wMDEtLjAwNGMtLjAyNS0uMTAyLS4wNjItLjE5MS0uMTEyLS4yNzNsLjAwMi4wMDR6bS0xOC41NzYtMTkuMjA1cS0uMTk0IDAtLjM2My4wMTJjLS4xMTUuMDA4LS4yMjIuMDI5LS4zMjMuMDYzbC4wMDktLjAwM3YuMDI0aC4wNDhxLjA5Ny4xNDUuMjQ0LjMyNnQuMjY2LjM1MWwuMzg3Ljc5OC4wNDgtLjAyNGMuMTEzLS4wODIuMi0uMTkyLjI1Mi0uMzIxbC4wMDItLjAwNWMuMDUyLS4xMzkuMDgyLS4zMDEuMDgyLS40NjkgMC0uMDE4IDAtLjAzNi0uMDAxLS4wNTR2LjAwM2MtLjA0NS0uMDQ0LS4wODItLjA5Ni0uMTA4LS4xNTRsLS4wMDEtLjAwMy0uMDgxLS4xODJjLS4wNTMtLjA4NC0uMTI3LS4xNS0uMjE0LS4xOTJsLS4wMDMtLjAwMWMtLjA5NC0uMDQ1LS4xNzQtLjEwMi0uMjQ0LS4xNjl6Ii8+PC9zdmc+;container=0;fontFamily=Arial;fontSize=12;fontColor=default;resizable=1;" parent="p2MmfGQ7m_cJtWzehYHR-60" vertex="1">
          <mxGeometry x="72.37000000000035" y="32.5" width="15.26" height="15" as="geometry" />
        </mxCell>
        <mxCell id="p2MmfGQ7m_cJtWzehYHR-33" value="" style="group" parent="v1fDPPINh6Xv338Q4RDt-1" vertex="1" connectable="0">
          <mxGeometry x="1290" y="375" width="160" height="120" as="geometry" />
        </mxCell>
        <mxCell id="p2MmfGQ7m_cJtWzehYHR-34" value="Canvas LMS" style="rounded=1;whiteSpace=wrap;html=1;fontFamily=Arial;fontSize=12;fontColor=default;labelBackgroundColor=default;resizable=1;verticalAlign=top;spacing=0;" parent="p2MmfGQ7m_cJtWzehYHR-33" vertex="1">
          <mxGeometry width="160" height="45" as="geometry" />
        </mxCell>
        <mxCell id="p2MmfGQ7m_cJtWzehYHR-35" value="Container:&amp;nbsp;" style="rounded=0;whiteSpace=wrap;html=1;fontFamily=Arial;fontSize=12;fontColor=default;labelBackgroundColor=default;resizable=1;" parent="p2MmfGQ7m_cJtWzehYHR-33" vertex="1">
          <mxGeometry y="25" width="160" height="20" as="geometry" />
        </mxCell>
        <mxCell id="p2MmfGQ7m_cJtWzehYHR-36" value="- Learning Management System" style="rounded=0;whiteSpace=wrap;html=1;fontFamily=Arial;fontSize=12;fontColor=default;labelBackgroundColor=default;resizable=1;align=left;verticalAlign=top;" parent="p2MmfGQ7m_cJtWzehYHR-33" vertex="1">
          <mxGeometry y="45" width="160" height="75" as="geometry" />
        </mxCell>
        <mxCell id="p2MmfGQ7m_cJtWzehYHR-39" value="Identity provided by" style="edgeStyle=orthogonalEdgeStyle;shape=connector;curved=0;rounded=1;jumpStyle=line;jumpSize=6;orthogonalLoop=1;jettySize=auto;html=1;exitX=1;exitY=0.5;exitDx=0;exitDy=0;shadow=0;dashed=1;strokeColor=default;strokeWidth=1;align=center;verticalAlign=middle;fontFamily=Arial;fontSize=12;fontColor=default;labelBackgroundColor=default;resizable=1;startSize=6;endArrow=block;endFill=1;endSize=6;flowAnimation=0;startArrow=block;startFill=1;" parent="v1fDPPINh6Xv338Q4RDt-1" source="p2MmfGQ7m_cJtWzehYHR-15" target="p2MmfGQ7m_cJtWzehYHR-36" edge="1">
          <mxGeometry relative="1" as="geometry" />
        </mxCell>
      </root>
    </mxGraphModel>
  </diagram>
  <diagram name="L3: Component" id="GNe00VD1epbkCnOGxEAM">
    <mxGraphModel dx="2946" dy="1201" grid="1" gridSize="5" guides="1" tooltips="1" connect="1" arrows="1" fold="1" page="1" pageScale="1" pageWidth="1920" pageHeight="1200" background="none" math="0" shadow="0" adaptiveColors="none">
      <root>
        <mxCell id="89yngiR_qW9lpH-7dkHl-0" />
        <mxCell id="89yngiR_qW9lpH-7dkHl-1" parent="89yngiR_qW9lpH-7dkHl-0" />
      </root>
    </mxGraphModel>
  </diagram>
  <diagram name="L4: Code" id="LmCXUCCZTlBPJVU45L4d">
    <mxGraphModel dx="3131" dy="1195" grid="1" gridSize="5" guides="1" tooltips="1" connect="1" arrows="1" fold="1" page="1" pageScale="1" pageWidth="1920" pageHeight="1200" background="none" math="0" shadow="0" adaptiveColors="none">
      <root>
        <mxCell id="bMADnWSdojcijmEOZkde-0" />
        <mxCell id="bMADnWSdojcijmEOZkde-1" parent="bMADnWSdojcijmEOZkde-0" />
      </root>
    </mxGraphModel>
  </diagram>
</mxfile>
